<svg width="16" height="17" viewBox="0 0 16 17" fill="none" xmlns="http://www.w3.org/2000/svg">
<path d="M5.81977 0.812134C2.82987 0.812134 0.397339 3.24457 0.397339 6.23454V10.7655C0.397339 13.7554 2.82987 16.1879 5.81977 16.1879H10.3507C13.3406 16.1879 15.7731 13.7554 15.7731 10.7655V8.75452L13.3604 10.187V10.7655C13.3604 12.425 12.0102 13.7751 10.3507 13.7751H5.81977C4.16022 13.7751 2.8101 12.425 2.8101 10.7655V6.23454C2.8101 4.57498 4.16022 3.22485 5.81977 3.22485H10.3507C11.442 3.22485 12.4587 3.83255 12.9855 4.78432L8.01589 7.79649L6.63233 5.5139L6.09984 5.83665C6.1002 5.83726 6.10061 5.83776 6.10096 5.83837C6.25964 6.10437 6.16625 6.45236 5.89249 6.61567C5.62055 6.77781 5.27316 6.6965 5.11301 6.43484L4.56904 6.76454L7.20313 11.1104L15.7652 5.92079L15.7571 5.81485C15.704 5.1218 15.5202 4.45787 15.2137 3.83773L15.2172 3.8356L15.0547 3.53008L15.052 3.53165C14.0841 1.84953 12.2994 0.812134 10.3507 0.812134H5.81977Z" fill="#375DFB"/>
</svg>
