<svg width="20" height="20" viewBox="0 0 20 20" fill="none" xmlns="http://www.w3.org/2000/svg">
<path d="M6.79688 6.82773V5H8.67188V2.5H6.79688V0H4.29688V2.5H2.42188V5H4.29688V6.82773C2.14023 7.38281 0.546875 9.34023 0.546875 11.6703C0.546875 14.4316 2.78555 16.6703 5.54688 16.6703C8.3082 16.6703 10.5469 14.4316 10.5469 11.6703C10.5469 9.34023 8.95352 7.38281 6.79688 6.82773ZM5.54688 14.1703C4.16602 14.1703 3.04688 13.0508 3.04688 11.6703C3.04688 10.2895 4.16602 9.17031 5.54688 9.17031C6.92773 9.17031 8.04688 10.2895 8.04688 11.6703C8.04688 13.0508 6.92773 14.1703 5.54688 14.1703Z" fill="#375DFB"/>
<path d="M19.4531 8.32996C19.4531 5.56855 17.2145 3.32996 14.4531 3.32996C12.1388 3.32996 10.1921 4.90242 9.62225 7.0371C11.146 8.35015 11.9424 10.4591 11.6658 12.4813C12.1291 12.793 12.6474 13.0294 13.2031 13.1725V16.2501H11.3281V17.5001L13.8281 20.0001H15.0781L17.5781 17.5001V16.2501H15.7031V13.1724C17.8596 12.6174 19.4531 10.6598 19.4531 8.32996ZM14.4531 10.83C13.0724 10.83 11.9531 9.71066 11.9531 8.32996C11.9531 6.94925 13.0724 5.82996 14.4531 5.82996C15.8338 5.82996 16.9531 6.94925 16.9531 8.32996C16.9531 9.71066 15.8338 10.83 14.4531 10.83Z" fill="#375DFB"/>
</svg>
