<svg width="20" height="20" viewBox="0 0 20 20" fill="none" xmlns="http://www.w3.org/2000/svg">
<path d="M16.0967 1.875C17.2149 1.875 18.125 2.78488 18.125 3.90332V16.0967C18.125 16.604 17.9371 17.0907 17.5957 17.4658H17.5947C17.2094 17.885 16.664 18.125 16.0967 18.125H3.90332C3.3945 18.125 2.90657 17.934 2.53516 17.5947L2.38379 17.4404C2.0559 17.0691 1.875 16.5917 1.875 16.0967V3.90332C1.875 2.78507 2.78488 1.875 3.90332 1.875H16.0967ZM3.40625 17.0371C3.55818 17.1176 3.72798 17.1631 3.90332 17.1631H5.98242L7.9502 14.7188L6.53906 12.8223L3.40625 17.0371ZM7.2168 17.1631H16.0977C16.2566 17.163 16.4117 17.1243 16.5537 17.0566L11.9277 11.3125L7.2168 17.1631ZM3.90332 2.83691C3.31566 2.83691 2.83691 3.31566 2.83691 3.90332V16.0967C2.83691 16.126 2.83815 16.1554 2.84082 16.1846L6.15332 11.7295L6.19141 11.6855C6.28534 11.589 6.4151 11.5441 6.53906 11.5439C6.68076 11.5439 6.83114 11.602 6.92578 11.7295L8.57227 13.9453L11.5527 10.2451H11.5537L11.6328 10.168C11.7195 10.1031 11.8255 10.0723 11.9277 10.0723C12.0641 10.0723 12.2077 10.1275 12.3027 10.2451L17.1484 16.2617C17.1569 16.2075 17.1631 16.1523 17.1631 16.0967V3.90332C17.1631 3.31566 16.6843 2.83691 16.0967 2.83691H3.90332Z" fill="black" stroke="#0A0D14" stroke-width="0.25"/>
<path d="M8.9043 4.07312C9.07999 4.07322 9.23562 4.18627 9.29004 4.35339L9.83398 6.0282H11.5957C11.7715 6.0282 11.9282 6.1421 11.9824 6.30945L11.9971 6.37292C12.0166 6.50007 11.9745 6.62925 11.8838 6.72058L11.834 6.76355L10.4092 7.79675L10.9541 9.47351L10.9688 9.53699C10.9884 9.66416 10.9463 9.79325 10.8555 9.88464L10.8066 9.92761C10.6818 10.0183 10.5181 10.0291 10.3838 9.96082L10.3291 9.92761L8.90332 8.89148L7.47852 9.92761C7.40737 9.97917 7.32386 10.0047 7.24023 10.0048C7.17721 10.0048 7.11429 9.99007 7.05664 9.96082L7.00098 9.92761C6.85886 9.82431 6.79925 9.6407 6.85352 9.47351L7.39746 7.79675L5.97363 6.76355C5.83142 6.66029 5.77193 6.47668 5.82617 6.30945L5.85156 6.2489C5.92026 6.1153 6.05896 6.0282 6.21289 6.0282H7.97461L8.51758 4.35339L8.54297 4.29382C8.6116 4.1599 8.75032 4.07312 8.9043 4.07312ZM8.6543 6.56042C8.59985 6.7274 8.44433 6.84055 8.26855 6.8407H7.46191L8.11426 7.31433L8.16309 7.3573C8.25384 7.44858 8.29602 7.57772 8.27637 7.70496L8.26172 7.76843L8.0127 8.53503L8.66504 8.0614L8.71973 8.02722C8.77729 7.99807 8.84042 7.98426 8.90332 7.98425C8.98712 7.98425 9.07133 8.00964 9.14258 8.0614L9.79492 8.53503L9.5459 7.76843C9.49151 7.6011 9.55114 7.4178 9.69336 7.31433L10.3447 6.8407H9.53906C9.38515 6.8407 9.2464 6.75382 9.17773 6.62L9.15234 6.56042L8.90332 5.79187L8.6543 6.56042Z" fill="#0A0D14" stroke="#0A0D14" stroke-width="0.1"/>
</svg>
