<svg width="20" height="20" viewBox="0 0 20 20" fill="none" xmlns="http://www.w3.org/2000/svg">
<path d="M16.75 16C16.75 16.1989 16.671 16.3896 16.5303 16.5303C16.3897 16.6709 16.1989 16.75 16 16.75H4C3.80109 16.75 3.61032 16.6709 3.46967 16.5303C3.32902 16.3896 3.25 16.1989 3.25 16V8.11746C3.24992 8.00317 3.27596 7.89037 3.32614 7.78768C3.37631 7.685 3.44929 7.59513 3.5395 7.52496L9.5395 2.85846C9.67116 2.75604 9.8332 2.70044 10 2.70044C10.1668 2.70044 10.3288 2.75604 10.4605 2.85846L16.4605 7.52496C16.5507 7.59513 16.6237 7.685 16.6739 7.78768C16.724 7.89037 16.7501 8.00317 16.75 8.11746V16ZM15.25 15.25V8.48346L10 4.40046L4.75 8.48346V15.25H15.25ZM6.25 12.25H13.75V13.75H6.25V12.25Z" fill="#0A0D14"/>
</svg>
