<svg width="20" height="21" viewBox="0 0 20 21" fill="none" xmlns="http://www.w3.org/2000/svg">
<path d="M14.7512 15.4209H12.7525V12.2881C12.7525 11.5411 12.7375 10.5796 11.71 10.5796C10.6682 10.5796 10.5092 11.3926 10.5092 12.2334V15.4209H8.50975V8.97913H10.4297V9.85663H10.456C10.7245 9.35113 11.377 8.81638 12.352 8.81638C14.377 8.81638 14.752 10.1499 14.752 11.8846V15.4209H14.7512ZM6.25225 8.09788C6.09967 8.09807 5.94854 8.06815 5.80755 8.00983C5.66655 7.95151 5.53845 7.86593 5.43059 7.758C5.32273 7.65008 5.23724 7.52192 5.17901 7.38089C5.12078 7.23985 5.09095 7.08871 5.09125 6.93613C5.0914 6.7065 5.15963 6.48208 5.28733 6.29124C5.41503 6.10039 5.59645 5.9517 5.80865 5.86397C6.02085 5.77623 6.2543 5.75339 6.47949 5.79833C6.70467 5.84327 6.91147 5.95398 7.07373 6.11646C7.23599 6.27893 7.34644 6.48587 7.39109 6.71111C7.43574 6.93635 7.4126 7.16978 7.32459 7.38186C7.23658 7.59395 7.08765 7.77518 6.89664 7.90263C6.70564 8.03008 6.48112 8.09802 6.2515 8.09788H6.25225ZM7.25425 15.4209H5.2495V8.97913H7.255V15.4209H7.25425ZM15.7525 3.91663H4.24675C3.69475 3.91663 3.25 4.35163 3.25 4.88938V16.4439C3.25 16.9816 3.6955 17.4166 4.246 17.4166H15.7495C16.3 17.4166 16.75 16.9816 16.75 16.4439V4.88938C16.75 4.35163 16.3 3.91663 15.7495 3.91663H15.7518H15.7525Z" fill="white"/>
</svg>
