<svg width="20" height="20" viewBox="0 0 20 20" fill="none" xmlns="http://www.w3.org/2000/svg">
<path d="M10.8402 13.7673L7.6909 12.0498C7.27975 12.4893 6.74589 12.795 6.15871 12.9272C5.57153 13.0593 4.95817 13.0118 4.39835 12.7908C3.83852 12.5698 3.35812 12.1855 3.01958 11.6879C2.68104 11.1902 2.5 10.6023 2.5 10.0004C2.5 9.39853 2.68104 8.81058 3.01958 8.31295C3.35812 7.81532 3.83852 7.43102 4.39835 7.21C4.95817 6.98898 5.57153 6.94146 6.15871 7.07362C6.74589 7.20577 7.27975 7.51148 7.6909 7.95103L10.8409 6.23353C10.6621 5.52559 10.7476 4.77672 11.0814 4.12731C11.4152 3.47789 11.9744 2.97252 12.6542 2.70591C13.3339 2.4393 14.0876 2.42976 14.7739 2.67908C15.4602 2.9284 16.032 3.41947 16.3821 4.06023C16.7323 4.70099 16.8367 5.44745 16.6758 6.15969C16.515 6.87193 16.0999 7.50106 15.5083 7.92914C14.9168 8.35722 14.1894 8.55486 13.4626 8.48503C12.7358 8.41519 12.0594 8.08266 11.5602 7.54978L8.41015 9.26728C8.53106 9.7483 8.53106 10.2518 8.41015 10.7328L11.5594 12.4503C12.0586 11.9174 12.735 11.5849 13.4619 11.515C14.1887 11.4452 14.916 11.6428 15.5076 12.0709C16.0991 12.499 16.5142 13.1281 16.6751 13.8404C16.8359 14.5526 16.7315 15.2991 16.3814 15.9398C16.0312 16.5806 15.4594 17.0717 14.7731 17.321C14.0868 17.5703 13.3332 17.5608 12.6534 17.2942C11.9736 17.0275 11.4144 16.5222 11.0806 15.8728C10.7468 15.2233 10.6613 14.4745 10.8402 13.7665V13.7673ZM5.50015 11.5C5.89798 11.5 6.27951 11.342 6.56081 11.0607C6.84212 10.7794 7.00015 10.3979 7.00015 10C7.00015 9.60221 6.84212 9.22067 6.56081 8.93937C6.27951 8.65807 5.89798 8.50003 5.50015 8.50003C5.10233 8.50003 4.7208 8.65807 4.43949 8.93937C4.15819 9.22067 4.00015 9.60221 4.00015 10C4.00015 10.3979 4.15819 10.7794 4.43949 11.0607C4.7208 11.342 5.10233 11.5 5.50015 11.5ZM13.7502 7.00003C14.148 7.00003 14.5295 6.842 14.8108 6.56069C15.0921 6.27939 15.2502 5.89786 15.2502 5.50003C15.2502 5.10221 15.0921 4.72067 14.8108 4.43937C14.5295 4.15807 14.148 4.00003 13.7502 4.00003C13.3523 4.00003 12.9708 4.15807 12.6895 4.43937C12.4082 4.72067 12.2502 5.10221 12.2502 5.50003C12.2502 5.89786 12.4082 6.27939 12.6895 6.56069C12.9708 6.842 13.3523 7.00003 13.7502 7.00003ZM13.7502 16C14.148 16 14.5295 15.842 14.8108 15.5607C15.0921 15.2794 15.2502 14.8979 15.2502 14.5C15.2502 14.1022 15.0921 13.7207 14.8108 13.4394C14.5295 13.1581 14.148 13 13.7502 13C13.3523 13 12.9708 13.1581 12.6895 13.4394C12.4082 13.7207 12.2502 14.1022 12.2502 14.5C12.2502 14.8979 12.4082 15.2794 12.6895 15.5607C12.9708 15.842 13.3523 16 13.7502 16Z" fill="#0A0D14"/>
</svg>
