<svg width="16" height="16" viewBox="0 0 16 16" fill="none" xmlns="http://www.w3.org/2000/svg">
<path d="M5.53992 0.5C2.62308 0.5 0.25 2.87299 0.25 5.7899V10.2101C0.25 13.127 2.62308 15.5 5.53992 15.5H9.96013C12.877 15.5 15.25 13.127 15.25 10.2101V8.24829L12.8963 9.64573V10.2101C12.8963 11.8291 11.5791 13.1462 9.96013 13.1462H5.53992C3.92093 13.1462 2.6038 11.8291 2.6038 10.2101V5.7899C2.6038 4.17089 3.92093 2.85375 5.53992 2.85375H9.96013C11.0247 2.85375 12.0166 3.4466 12.5305 4.37512L7.68236 7.31367L6.33262 5.08687L5.81314 5.40173C5.81349 5.40232 5.81389 5.40281 5.81424 5.40341C5.96903 5.6629 5.87793 6.00239 5.61086 6.16171C5.34557 6.31988 5.00666 6.24057 4.85043 5.98529L4.31975 6.30694L6.88947 10.5466L15.2423 5.48381L15.2344 5.38046C15.1826 4.70435 15.0033 4.05664 14.7043 3.45166L14.7077 3.44957L14.5492 3.15152L14.5465 3.15305C13.6023 1.51204 11.8612 0.5 9.96013 0.5H5.53992Z" fill="#375DFB"/>
</svg>
