<svg width="120" height="121" viewBox="0 0 120 121" fill="none" xmlns="http://www.w3.org/2000/svg">
<path d="M52.6733 72.5674C51.2717 70.6984 51.1499 68.3254 51.2651 65.8948C51.32 64.6052 51.4721 63.3215 51.7199 62.0548C50.7322 61.6066 49.8725 60.9183 49.2191 60.0526C47.3999 57.6022 47.7485 53.863 49.6043 51.4594C51.5903 48.8872 55.3157 48.4594 58.2773 50.8384C59.2733 51.7578 60.1253 52.8219 60.8045 53.995C61.5791 55.1212 61.4369 55.435 62.9987 55.855C63.9474 56.0243 64.7987 56.5419 65.3855 57.3064C65.8245 57.9645 66.0645 58.7353 66.0767 59.5264C66.1433 61.0024 65.5091 62.2534 65.4467 63.4174C67.4009 65.2492 66.1667 68.8174 63.7067 69.4774C63.4002 70.9496 63.3758 72.4666 63.6347 73.948C63.6405 73.98 63.6553 74.0098 63.6775 74.0337C63.6996 74.0576 63.7281 74.0747 63.7596 74.083C63.7912 74.0912 63.8244 74.0903 63.8554 74.0803C63.8864 74.0703 63.9139 74.0517 63.9347 74.0266C64.1285 73.7788 64.4039 73.4782 64.6133 73.255C65.883 71.8312 67.4263 70.6775 69.1511 69.8626C73.3997 67.9732 78.2807 69.1132 80.5439 73.3162C81.7679 75.589 81.9935 78.133 82.0913 80.3362C82.1381 81.394 82.1699 82.4608 82.1699 83.5162C84.4703 79.5592 85.3349 77.857 86.5415 78.052C88.0649 74.815 88.0979 71.8804 93.1601 68.6002C93.0919 65.638 92.4723 62.7145 91.3331 59.9794C90.5237 60.3319 89.6838 60.6098 88.8239 60.8098C83.5733 62.1994 78.2039 63.4696 72.7883 63.1096C71.9927 63.0568 71.8625 62.7724 71.8703 62.1826C71.9135 58.864 71.8241 53.1964 71.0903 49.9684C70.5401 47.5408 68.8559 43.7884 67.7243 41.5744C62.1881 40.5448 54.7307 40.8574 47.8043 42.8686C47.6267 43.988 47.5332 45.1192 47.5247 46.2526C47.2889 51.2979 45.4755 56.1419 42.3401 60.1018C41.9741 60.5524 41.8115 60.5848 41.3609 60.4864C36.9801 59.4744 32.674 58.1627 28.4729 56.5606C30.2039 62.1562 29.7425 68.5282 32.2589 73.8814C33.0433 75.4379 33.9374 76.9366 34.9343 78.3664C33.6902 79.0773 32.399 79.7026 31.0697 80.2378C31.4748 80.58 31.8574 80.9479 32.2151 81.3394C34.0034 83.203 35.6481 85.1993 37.1351 87.3112C37.5551 84.2332 38.8529 79.2712 40.4579 76.303C42.0935 73.2778 44.5379 71.617 48.0905 71.617C49.614 71.587 51.1159 71.9797 52.4297 72.7516C52.5845 72.8458 52.7735 72.7012 52.6733 72.5674Z" fill="#375DFB"/>
<path d="M22.0451 82.6203C19.6355 83.8497 17.1317 85.2411 14.8493 86.7123C14.3295 87.0023 13.8352 87.3357 13.3715 87.7089C12.0346 85.8164 11.0267 83.7118 10.3901 81.4839C10.1187 81.5423 9.84426 81.5862 9.56812 81.6153C9.59452 81.6939 9.61192 81.7815 9.64732 81.8685C10.2893 84.0879 11.3 86.1835 12.6371 88.0677C12.6746 88.119 12.7231 88.1614 12.779 88.1916C12.835 88.2218 12.897 88.2391 12.9605 88.2423C12.9631 88.2687 12.9713 88.2943 12.9845 88.3174C12.9977 88.3405 13.0156 88.3605 13.0371 88.3762C13.0585 88.3919 13.0831 88.4029 13.109 88.4084C13.135 88.414 13.1619 88.414 13.1879 88.4085C13.8633 88.1947 14.4986 87.8703 15.0677 87.4485C17.0891 86.2485 20.3315 84.3777 22.3877 83.3655C22.2643 83.1214 22.15 82.8729 22.0451 82.6203Z" fill="#191919"/>
<path d="M5.99213 62.9733C6.76486 65.6575 7.31768 68.4002 7.64512 71.1741C7.91572 71.1657 8.18513 71.1567 8.45813 71.1567C7.92173 67.2519 7.26473 63.1911 5.54633 59.6505C5.12352 58.605 4.38364 57.7182 3.43072 57.1149C3.42172 57.1149 3.42173 57.1065 3.41333 57.1065C6.75233 55.7103 11.1575 53.2065 20.2613 50.1555C21.9791 49.5795 21.9803 49.4727 22.5347 50.0595C24.6968 52.3983 26.3178 55.1841 27.2825 58.2195C29.3963 64.7691 28.2383 71.2077 32.4497 78.1107C31.5162 78.3992 30.5996 78.7397 29.7041 79.1307C29.7215 79.1571 29.7305 79.1835 29.7479 79.2093C29.9321 79.1862 30.1192 79.2083 30.2929 79.2739C30.4666 79.3394 30.6216 79.4464 30.7445 79.5855C32.1245 79.0197 32.5193 78.9735 32.8517 78.6411C33.1577 78.7809 33.5945 78.4491 33.3677 78.0903C27.3875 68.6181 31.8731 59.6637 23.5577 50.0241C23.0435 49.4283 22.5167 48.7785 21.6431 48.9141C20.5631 49.0815 8.18272 53.5305 3.10732 56.7393C3.07296 56.7642 3.04529 56.7973 3.02677 56.8354C3.00826 56.8736 2.99947 56.9158 3.00119 56.9582C3.00291 57.0006 3.01509 57.0419 3.03664 57.0785C3.0582 57.115 3.08846 57.1457 3.12473 57.1677C3.09659 57.19 3.07371 57.2182 3.0577 57.2502C3.04168 57.2823 3.03294 57.3176 3.03208 57.3534C3.03122 57.3893 3.03827 57.4249 3.05272 57.4577C3.06718 57.4905 3.08869 57.5198 3.11572 57.5433C4.67992 58.9335 5.38313 61.0323 5.99213 62.9733Z" fill="#191919"/>
<path d="M42.8015 90.6033C42.8369 90.6033 42.8369 90.5595 42.8015 90.5595C42.7667 90.5505 42.7667 90.6033 42.8015 90.6033Z" fill="#191919"/>
<path d="M41.5866 38.8341C41.335 38.6312 41.0327 38.5011 40.7124 38.4579C40.1952 38.3415 38.5788 38.0157 37.6872 37.8633C36.3503 37.5705 34.9894 37.4008 33.6216 37.3563C33.5687 37.3579 33.518 37.3781 33.4786 37.4135C33.4392 37.4489 33.4136 37.4971 33.4064 37.5496C33.3992 37.6021 33.4108 37.6554 33.4392 37.7001C33.4677 37.7448 33.511 37.778 33.5616 37.7937C34.8581 38.1977 36.1814 38.5102 37.5216 38.7291C37.6308 38.7507 40.3812 39.2895 40.4856 39.3063C40.8046 39.3993 41.1427 39.4053 41.4648 39.3237C41.5109 39.3059 41.5521 39.2772 41.5848 39.2401C41.6176 39.203 41.6409 39.1586 41.6528 39.1105C41.6648 39.0625 41.665 39.0124 41.6535 38.9643C41.6419 38.9161 41.619 38.8715 41.5866 38.8341Z" fill="#191919"/>
<path d="M41.1054 42.9783C40.6062 42.6075 39.9864 42.7899 35.1426 41.8851C34.494 41.7063 33.8215 41.6298 33.1494 41.6583C32.9484 41.6931 32.9568 41.9727 33.0966 42.0687C33.8538 42.5817 38.1042 43.2375 38.9988 43.3803C39.6108 43.4679 40.4388 43.7217 41.0358 43.4853C41.0864 43.4685 41.1313 43.4379 41.1653 43.397C41.1994 43.356 41.2213 43.3063 41.2286 43.2535C41.2358 43.2007 41.2281 43.1469 41.2064 43.0983C41.1846 43.0496 41.1496 43.008 41.1054 42.9783Z" fill="#191919"/>
<path d="M40.5113 47.7261C40.2635 47.5362 39.9716 47.4123 39.6629 47.3661C39.0947 47.2173 34.9439 46.5183 34.2335 46.4133C33.5055 46.2474 32.76 46.171 32.0135 46.1859C31.8035 46.2081 31.6637 46.5009 31.8827 46.5969C32.5485 46.8524 33.2405 47.0335 33.9461 47.1369C34.6031 47.2719 38.8025 48.0501 39.3581 48.1161C39.7067 48.1981 40.0702 48.1921 40.4159 48.0987C40.4517 48.086 40.4839 48.0647 40.5095 48.0366C40.5352 48.0086 40.5535 47.9747 40.563 47.9378C40.5724 47.901 40.5726 47.8624 40.5636 47.8255C40.5546 47.7886 40.5366 47.7544 40.5113 47.7261Z" fill="#191919"/>
<path d="M23.2957 58.9533C22.8832 58.8824 22.4589 58.9501 22.0891 59.1459C15.6985 61.4019 14.3443 61.6881 13.3459 62.5383C13.1707 62.6955 13.3633 63.0453 13.5907 62.9493C15.5581 62.1471 19.1335 61.1247 22.3777 59.9331C22.7533 59.8017 23.2345 59.6883 23.4439 59.3295C23.463 59.2958 23.4744 59.2582 23.4771 59.2195C23.4798 59.1808 23.4739 59.142 23.4597 59.106C23.4455 59.0699 23.4234 59.0374 23.395 59.011C23.3666 58.9846 23.3327 58.9649 23.2957 58.9533Z" fill="#191919"/>
<path d="M23.4264 63.5511C22.701 63.4725 21.9402 63.8661 21.258 64.0761C16.749 65.4915 15.789 65.2257 15.3654 66.2091C15.2868 66.4107 15.54 66.5415 15.6888 66.4629C16.2394 66.2281 16.8186 66.0667 17.4114 65.9829C18.315 65.7981 19.956 65.3829 21.6714 64.8381C22.3747 64.7088 23.0353 64.4084 23.595 63.9633C23.6276 63.9293 23.6497 63.8866 23.6585 63.8402C23.6674 63.7939 23.6626 63.746 23.6447 63.7024C23.6269 63.6588 23.5967 63.6212 23.558 63.5944C23.5192 63.5675 23.4735 63.5525 23.4264 63.5511Z" fill="#191919"/>
<path d="M108.3 40.9852C108.11 40.7625 107.84 40.624 107.548 40.6C105.927 40.2098 104.353 39.6466 102.853 38.92C102.346 38.6932 101.743 38.2558 101.165 38.3692C101.017 38.3956 100.979 38.617 101.087 38.7292C101.55 39.1233 102.072 39.442 102.634 39.6736C104.108 40.4206 105.663 40.9955 107.268 41.3871C107.414 41.4513 107.571 41.4851 107.731 41.4865C107.89 41.4879 108.048 41.457 108.195 41.3955C108.263 41.355 108.313 41.289 108.332 41.2121C108.352 41.1351 108.34 41.0535 108.3 40.9852Z" fill="#191919"/>
<path d="M105.946 44.0361C105.623 43.6251 104.926 43.5993 104.443 43.5291C101.221 43.0083 100.063 42.0549 99.4674 42.1491C99.437 42.1533 99.4081 42.165 99.3834 42.1832C99.3587 42.2013 99.3389 42.2254 99.3258 42.2532C99.3128 42.281 99.3069 42.3116 99.3087 42.3422C99.3104 42.3729 99.3198 42.4026 99.336 42.4287C99.489 42.6507 99.7055 42.8213 99.957 42.9183C101.257 43.5938 102.656 44.0596 104.101 44.2983C104.66 44.4641 105.242 44.5323 105.824 44.4999C105.87 44.4867 105.913 44.4617 105.947 44.4271C105.981 44.3926 106.005 44.3498 106.018 44.3029C106.03 44.2561 106.03 44.2068 106.017 44.16C106.005 44.1132 105.98 44.0705 105.946 44.0361Z" fill="#191919"/>
<path d="M104.206 46.2573C103.477 45.7773 102.778 46.1973 99.2053 45.0069C98.6746 44.774 98.1207 44.5981 97.5529 44.4819C97.3693 44.4609 97.1593 44.7009 97.3429 44.8671C98.3077 45.7161 100.998 46.4241 102.361 46.6671C102.939 46.8484 103.556 46.8691 104.145 46.7271C104.192 46.7118 104.234 46.6834 104.266 46.6452C104.298 46.6071 104.318 46.5607 104.324 46.5115C104.331 46.4623 104.323 46.4123 104.302 46.3673C104.281 46.3223 104.248 46.2842 104.206 46.2573Z" fill="#191919"/>
<path d="M93.6792 57.1425C93.6444 56.6151 91.9074 47.6079 91.7556 46.8519C90.6342 41.2533 89.8956 37.8951 87.0606 33.6843C86.7438 33.2133 86.3712 32.7981 86.0376 32.3463C86.0186 32.3204 85.9934 32.2997 85.9644 32.2859C85.9354 32.2722 85.9034 32.2659 85.8714 32.2677C85.8463 32.2576 85.8197 32.2517 85.7928 32.2503C84.4406 32.1986 83.0867 32.2895 81.7536 32.5215C78.0606 32.9739 74.0736 33.7887 70.7136 35.4501C69.5457 35.9889 68.4524 36.6766 67.461 37.4961C67.407 37.4773 67.3487 37.4753 67.2936 37.4903C67.2385 37.5054 67.1893 37.5368 67.1524 37.5804C67.1155 37.624 67.0926 37.6777 67.0869 37.7345C67.0811 37.7913 67.0927 37.8486 67.1202 37.8987C67.8546 39.3675 68.6028 40.8387 69.2532 42.3489C71.5568 47.6981 72.7172 53.4696 72.66 59.2935C72.5877 60.2254 72.6024 61.1621 72.7038 62.0913C72.7506 62.3703 73.1322 62.3187 73.2192 62.0997C73.4655 62.1728 73.7168 62.2283 73.971 62.2659C76.4142 62.4569 78.8722 62.3009 81.2718 61.8027C84.7542 61.0506 88.1543 59.9584 91.4232 58.5417C92.1695 58.2696 92.892 57.9361 93.5832 57.5445C93.6441 57.4997 93.6873 57.4347 93.7048 57.3611C93.7224 57.2875 93.7133 57.21 93.6792 57.1425ZM74.2254 61.6101C73.9254 61.5993 73.6308 61.6365 73.3422 61.6539C73.4639 60.9936 73.5196 60.3229 73.5084 59.6517C73.6399 53.7982 72.5253 47.9836 70.2384 42.5937C69.5734 40.9589 68.7571 39.3899 67.8 37.9071C68.76 37.3827 69.6972 36.8307 70.6854 36.3597C77.274 33.2181 83.8716 33.3927 85.8288 32.8971C85.9993 33.2595 86.189 33.6126 86.397 33.9549C87.9924 36.2481 89.1293 38.8283 89.745 41.5533C91.1724 46.9197 92.4504 55.3617 93.0408 57.0549C90.9294 57.6477 82.8822 61.9299 74.2254 61.6101Z" fill="#191919"/>
<path d="M90.5665 10.4091C90.5608 10.3804 90.5495 10.3531 90.5332 10.3287C90.517 10.3044 90.4961 10.2835 90.4717 10.2673C90.4473 10.251 90.42 10.2398 90.3912 10.2342C90.3625 10.2286 90.3329 10.2287 90.3043 10.2345C90.2776 10.1797 90.2368 10.133 90.186 10.0992C90.1353 10.0653 90.0765 10.0456 90.0157 10.0419C89.4979 10.0143 88.9669 10.1871 87.4801 10.5933C85.7053 11.0781 84.7885 11.3523 82.4707 12.0441C81.7729 12.1937 81.0972 12.432 80.4601 12.7533C79.8691 12.5667 80.0605 13.4313 79.8745 14.8341C79.8463 15.0435 79.8043 15.2541 79.7695 15.4635C79.7502 15.4228 79.7223 15.3867 79.6875 15.358C79.6528 15.3293 79.6121 15.3086 79.5685 15.2973C77.6401 14.7465 76.2139 14.9019 73.8499 12.6831C71.4133 10.3965 70.1971 8.42853 69.7321 8.02293C69.719 7.97825 69.6965 7.93686 69.6662 7.9015C69.6359 7.86614 69.5985 7.83761 69.5563 7.81782C69.5142 7.79802 69.4683 7.7874 69.4218 7.78666C69.3752 7.78592 69.329 7.79508 69.2863 7.81353C68.9663 7.91987 68.6651 8.0762 68.3941 8.27673C59.6515 14.3439 55.5151 15.3753 55.2175 15.9699C55.0513 15.9525 54.8683 16.1097 54.9289 16.2849C55.2996 17.2597 55.7684 18.1943 56.3281 19.0743C60.4267 25.9947 66.7045 28.6815 74.3041 27.6687C76.9828 27.3835 79.5593 26.4829 81.8323 25.0371C85.6681 22.4319 91.1533 14.7603 90.5665 10.4091ZM86.2915 19.2141C85.4294 20.4472 84.4578 21.6001 83.3887 22.6587C78.4897 27.4221 69.9931 28.1787 64.3633 25.5615C60.1999 23.6277 58.5271 21.1257 56.1877 17.2815C55.9963 16.9665 55.8031 16.6815 55.5937 16.3899C58.3693 15.6039 67.0951 10.3227 69.4165 8.58213C70.6021 10.329 71.9645 11.9492 73.4821 13.4169C75.1101 14.9616 77.2402 15.8679 79.4821 15.9699C79.5474 15.9739 79.6122 15.9555 79.6657 15.9177C78.3349 20.8599 73.4389 25.1121 69.7057 25.5267C68.9102 25.5408 68.1162 25.5991 67.3273 25.7013C67.2073 25.7289 67.1617 25.9377 67.2841 25.9899C67.9774 26.2299 68.7125 26.325 69.4441 26.2695C71.6953 26.2293 73.4299 25.1937 75.2323 23.7777C77.3886 22.0872 79.062 19.859 80.0845 17.3169C80.6575 16.0432 80.8752 14.6381 80.7145 13.2507C81.5545 13.2399 82.0387 12.9777 87.6391 11.4237C88.442 11.2519 89.2333 11.0299 90.0085 10.7589C89.4642 13.8342 88.1894 16.7339 86.2915 19.2141Z" fill="#191919"/>
<path d="M39.9953 16.075C39.604 15.7885 39.1437 15.6109 38.6615 15.5602C38.1792 15.5095 37.692 15.5875 37.2497 15.7864C36.8112 15.9548 36.4524 16.2825 36.245 16.7039C36.0375 17.1254 35.9967 17.6095 36.1307 18.0598C36.1465 18.1138 36.1811 18.1605 36.2283 18.1913C36.2755 18.2221 36.3321 18.2351 36.388 18.2278C36.4438 18.2206 36.4953 18.1936 36.533 18.1518C36.5708 18.11 36.5924 18.0561 36.5939 17.9998C36.6239 17.6237 36.7774 17.268 37.0304 16.9882C37.2835 16.7083 37.6219 16.52 37.9931 16.4524C38.4752 16.3681 38.9713 16.4679 39.3833 16.732C40.0745 17.2378 39.7283 18.1072 39.3569 18.8044C38.9795 19.513 38.6891 20.1442 39.2081 20.8066C39.3335 20.9662 39.5621 21.1228 39.6881 21.2962C40.0685 21.8164 40.6025 21.5812 40.5971 21.1822C40.5885 21.0473 40.5474 20.9165 40.4775 20.8008C40.4075 20.6852 40.3106 20.5882 40.1951 20.518C39.6383 20.0524 39.7925 19.987 40.1423 19.258C40.6901 18.1216 41.0459 16.9054 39.9953 16.075Z" fill="#375DFB"/>
<path d="M41.6999 22.7463C41.4629 22.8058 41.2551 22.9484 41.1143 23.1483C41.0911 23.217 41.087 23.2908 41.1024 23.3617C41.1179 23.4326 41.1522 23.498 41.2019 23.5509C41.3176 23.6515 41.4565 23.7217 41.606 23.7552C41.7556 23.7887 41.9112 23.7845 42.0587 23.7429C42.4955 23.4795 42.2075 22.7133 41.6999 22.7463Z" fill="#375DFB"/>
<path d="M61.1801 28.7793C60.7265 28.6701 59.1815 28.3881 58.5401 29.3127C58.3919 29.5263 58.6919 29.7471 58.8899 29.5833C59.2123 29.4143 59.584 29.3648 59.9393 29.4435C60.429 29.4422 60.9138 29.5404 61.3643 29.7321C62.2139 30.1887 62.1059 31.1211 61.4609 31.8321C60.5105 32.8773 60.0707 32.7855 59.3609 33.1521C59.0075 33.3417 58.7256 33.6416 58.5584 34.0062C58.3911 34.3708 58.3477 34.7801 58.4345 35.1717C58.4435 35.224 58.463 35.2739 58.4919 35.3185C58.5208 35.363 58.5585 35.4011 58.6026 35.4306C58.6467 35.4601 58.6964 35.4803 58.7486 35.4899C58.8008 35.4995 58.8544 35.4984 58.9061 35.4867C59.0304 35.4639 59.141 35.3937 59.2144 35.2909C59.2879 35.1882 59.3185 35.0608 59.2997 34.9359C59.2649 34.7277 59.3012 34.5139 59.4028 34.3288C59.5043 34.1438 59.6652 33.9983 59.8595 33.9159C60.3295 33.7399 60.7805 33.5172 61.2059 33.2511C62.2859 32.4297 62.8361 31.6311 62.8757 30.7503C62.8672 30.2756 62.693 29.8189 62.3834 29.459C62.0738 29.0991 61.6482 28.8587 61.1801 28.7793Z" fill="#375DFB"/>
<path d="M58.5834 36.9801C58.5075 36.9931 58.4351 37.0214 58.3704 37.063C58.3056 37.1047 58.25 37.159 58.2068 37.2227C58.1635 37.2864 58.1336 37.3582 58.1187 37.4337C58.1038 37.5092 58.1043 37.587 58.1202 37.6623C58.1572 37.795 58.2448 37.9079 58.3642 37.9766C58.4837 38.0453 58.6253 38.0643 58.7586 38.0295C59.28 37.9071 59.4378 36.9123 58.5834 36.9801Z" fill="#375DFB"/>
<path d="M51.2653 32.4424C50.8893 32.0054 50.4079 31.6718 49.8667 31.4734C47.9683 30.5572 38.2825 27.5134 33.8401 26.9794C33.4471 26.932 33.0601 26.9446 32.6773 26.9356C32.6592 26.9338 32.641 26.937 32.6245 26.9446C32.6122 26.9145 32.5932 26.8877 32.569 26.8662C32.5447 26.8447 32.5158 26.8292 32.4845 26.8207C32.4532 26.8122 32.4203 26.8111 32.3885 26.8174C32.3567 26.8237 32.3268 26.8372 32.3011 26.857C31.5226 27.3576 30.8463 28.0014 30.3079 28.7542C28.7437 30.814 27.9679 33.6496 27.6235 36.2122C27.0001 40.8802 27.4309 46.2082 24.9307 50.3926C25.1317 50.62 25.3153 50.8648 25.5079 51.1096C29.6851 44.4256 26.5045 36.2812 30.6487 29.6362C31.2076 28.8006 31.8397 28.0163 32.5375 27.2926C32.5592 27.3141 32.5863 27.3292 32.6161 27.3364C32.9053 27.412 33.1933 27.5278 33.4903 27.5986C33.5503 27.613 44.3959 29.9542 49.1233 32.0578C50.1967 32.5378 50.3683 32.7364 50.6623 32.8534C49.3518 33.9046 48.299 35.2414 47.5843 36.7618C44.8135 42.2122 46.8511 47.2108 44.1487 53.3044C43.3758 55.056 42.3247 56.6711 41.0359 58.087C36.5247 56.847 32.0101 55.6288 27.4921 54.4324C27.6409 54.7558 27.7807 55.0882 27.9031 55.42C28.6465 55.621 39.8659 58.6444 41.0623 58.9876C41.1354 59.008 41.2125 59.0091 41.2862 58.9907C41.3598 58.9723 41.4274 58.935 41.4823 58.8826C48.8575 51.1624 45.3349 44.3074 47.8801 38.0908C48.8227 35.7892 50.1001 34.5262 51.1849 33.247C51.2319 33.1896 51.259 33.1185 51.2621 33.0444C51.2653 32.9703 51.2443 32.8971 51.2023 32.836C51.2614 32.7911 51.3009 32.7251 51.3126 32.6518C51.3244 32.5785 51.3074 32.5035 51.2653 32.4424Z" fill="#191919"/>
<path d="M116.893 33.5619C116.881 33.5208 116.861 33.4827 116.834 33.4496C116.807 33.4165 116.773 33.3892 116.735 33.3693C116.738 33.2788 116.711 33.1899 116.659 33.1159C116.607 33.0418 116.533 32.9865 116.447 32.9583C115.912 32.7903 115.94 32.8317 112.495 32.0931C103.906 30.2505 100.905 29.3547 100.429 29.5923C100.394 29.5875 100.357 29.5899 100.323 29.5992C100.288 29.6085 100.256 29.6246 100.227 29.6465C100.199 29.6685 100.175 29.6958 100.157 29.7269C100.139 29.7581 100.128 29.7924 100.123 29.8281C99.864 32.4681 99.4794 34.4337 95.1042 38.0823C93.7596 39.2031 92.3766 40.3113 91.1172 41.5269C91.1772 41.8593 91.2486 42.1827 91.3098 42.5151C92.8536 40.9713 94.059 40.0497 95.8038 38.5893C98.3238 36.4815 101.239 33.3411 100.691 30.0909C101.254 30.3115 101.832 30.4868 102.422 30.6153C105.302 31.3293 110.277 32.4531 112.285 32.8887C113.589 33.1713 114.908 33.5445 116.237 33.7101C116.176 34.0712 116.147 34.437 116.15 34.8033C115.951 39.5667 113.854 44.9211 110.274 48.0495C108.91 49.1009 107.746 50.3892 106.838 51.8529C105.883 53.3227 105.362 55.0318 105.334 56.7843C104.092 55.5417 95.1438 52.7115 93.4782 52.1673C93.5568 52.4913 93.6444 52.8231 93.732 53.1555C104.135 56.4063 104.172 57.2595 105.098 57.4221C105.163 57.4358 105.232 57.4299 105.294 57.405C105.356 57.3801 105.41 57.3374 105.448 57.2823C105.469 57.2993 105.495 57.3107 105.522 57.3155C105.549 57.3202 105.577 57.3181 105.603 57.3095C105.629 57.3008 105.652 57.2857 105.671 57.2657C105.69 57.2456 105.703 57.2212 105.71 57.1947C106.066 55.5612 106.631 53.9804 107.39 52.4913C108.455 50.6313 109.435 49.8585 110.844 48.6177C114.613 45.2985 116.734 39.7737 116.982 35.0391C117.038 34.5452 117.008 34.0454 116.893 33.5619Z" fill="#191919"/>
<path d="M54.588 64.12C54.5079 64.0963 54.4218 64.1039 54.3471 64.1412C54.2724 64.1785 54.2146 64.2427 54.1854 64.321C54.1306 64.3586 54.0832 64.406 54.0456 64.4608C53.9791 64.5442 53.9373 64.6446 53.925 64.7506C53.9126 64.8566 53.9302 64.9639 53.9758 65.0604C54.0213 65.1569 54.0929 65.2387 54.1826 65.2965C54.2722 65.3544 54.3763 65.386 54.483 65.3878C55.0236 65.365 55.2246 64.3708 54.588 64.12Z" fill="#191919"/>
<path d="M57.7266 64.5567C57.6442 64.6189 57.5776 64.6995 57.532 64.7922C57.4865 64.8848 57.4633 64.9868 57.4644 65.0901C57.4716 65.2338 57.5337 65.3692 57.6379 65.4684C57.742 65.5677 57.8803 65.6232 58.0242 65.6235C58.3476 65.6103 58.5006 65.2911 58.5222 65.0025C58.5411 64.8682 58.5132 64.7314 58.4431 64.6153C58.3731 64.4991 58.2652 64.4106 58.1376 64.3647C58.0575 64.3394 57.9708 64.3451 57.8947 64.3806C57.8186 64.4162 57.7586 64.479 57.7266 64.5567Z" fill="#191919"/>
<path d="M56.04 66.4977C56.1816 65.7429 56.502 65.0115 56.5734 64.2507C56.5902 64.0671 56.346 64.0497 56.25 64.1631C55.7754 64.8003 55.4472 66.3525 55.3314 67.1361C55.2774 67.5033 55.1916 67.9761 55.6986 68.0361C55.9386 68.0537 56.1797 68.0233 56.4079 67.9468C56.6361 67.8703 56.8467 67.7491 57.0276 67.5903C57.0588 67.5582 57.0797 67.5175 57.0878 67.4734C57.0959 67.4294 57.0907 67.3839 57.073 67.3428C57.0553 67.3017 57.0258 67.2667 56.9883 67.2423C56.9507 67.2179 56.9068 67.2052 56.862 67.2057C56.5316 67.2563 56.2044 67.3262 55.8822 67.4151C55.8816 67.3533 56.0274 66.5607 56.04 66.4977Z" fill="#191919"/>
<path d="M54.84 70.3797C54.9432 70.2116 55.0832 70.0692 55.2495 69.9631C55.4158 69.8571 55.6041 69.7903 55.8 69.7677C55.9229 69.7479 56.049 69.7661 56.1614 69.8196C56.2738 69.8732 56.3673 69.9597 56.4294 70.0677C56.5212 70.2537 56.5086 70.4433 56.6568 70.6011C56.6809 70.6249 56.7102 70.643 56.7423 70.6539C56.7744 70.6648 56.8086 70.6683 56.8423 70.6641C56.876 70.6598 56.9083 70.648 56.9367 70.6295C56.9652 70.6111 56.9891 70.5863 57.0066 70.5573C57.0676 70.4012 57.0844 70.2312 57.0551 70.0662C57.0258 69.9012 56.9515 69.7474 56.8404 69.6219C56.7238 69.4849 56.5772 69.3765 56.4119 69.3052C56.2467 69.234 56.0673 69.2017 55.8876 69.2109C55.3368 69.2109 54.5148 69.6219 54.576 70.2687C54.5964 70.3797 54.7536 70.4847 54.84 70.3797Z" fill="#191919"/>
<path d="M63.5323 75.9843C63.3013 76.0834 63.0861 76.216 62.8939 76.3779C61.5421 77.1571 60.0512 77.665 58.5049 77.8731C57.5009 77.9266 56.4973 77.7595 55.5649 77.3835C55.3979 77.3039 55.2397 77.2072 55.0927 77.0949C55.6097 75.9882 55.8612 74.776 55.8271 73.5549C56.1967 73.6205 56.5745 73.6264 56.9461 73.5723C58.0149 73.3963 59.0071 72.9063 59.7967 72.1647C59.8913 72.0374 59.976 71.903 60.0499 71.7627C60.1903 71.5527 59.9119 71.2581 59.7007 71.4129C58.9512 72.0619 58.0672 72.5367 57.1123 72.8031C56.6504 72.9116 56.1693 72.9087 55.7087 72.7947C55.2481 72.6807 54.8212 72.4588 54.4633 72.1473C52.7323 70.6431 52.7431 68.0727 52.7833 65.9745C52.8109 64.5753 52.9393 63.1677 53.0455 61.7691C53.0444 61.7212 53.0263 61.6753 52.9943 61.6396C52.9624 61.6039 52.9187 61.5808 52.8712 61.5744C52.8238 61.568 52.7756 61.5788 52.7354 61.6049C52.6951 61.6309 52.6655 61.6704 52.6519 61.7163C52.1425 64.0743 51.8419 67.4817 52.3519 69.7779C52.4974 70.5637 52.8311 71.3027 53.3244 71.9315C53.8177 72.5603 54.4559 73.0603 55.1845 73.3887C55.0885 73.9833 55.0567 74.5959 54.9223 75.1809C54.8024 75.6838 54.6564 76.18 54.4849 76.6677C54.4489 76.656 54.4107 76.6529 54.3733 76.6588C54.3359 76.6646 54.3005 76.6792 54.2698 76.7014C54.2392 76.7236 54.2142 76.7527 54.1969 76.7863C54.1797 76.82 54.1706 76.8573 54.1705 76.8951C54.2875 78.1443 56.7157 78.6507 58.1659 78.6699C59.9226 78.517 61.6241 77.9797 63.1501 77.0961C63.4393 76.9053 63.7621 76.7025 63.8407 76.3443C63.8579 76.299 63.8626 76.2498 63.8543 76.202C63.8459 76.1543 63.8249 76.1096 63.7933 76.0728C63.7618 76.0359 63.7209 76.0083 63.6749 75.9927C63.629 75.9772 63.5797 75.9742 63.5323 75.9843Z" fill="#191919"/>
<path d="M96.6001 70.8171C98.0131 70.3821 100.736 68.5059 105.895 68.4039C106.347 68.4519 106.804 68.4135 107.241 68.2905C107.281 68.2666 107.314 68.2326 107.338 68.192C107.361 68.1513 107.373 68.1054 107.373 68.0586C107.373 68.0119 107.361 67.9659 107.338 67.9253C107.314 67.8846 107.281 67.8507 107.241 67.8267C106.814 67.6566 106.35 67.5993 105.895 67.6605C103.491 67.6931 101.116 68.189 98.8999 69.1209C97.9982 69.4406 97.1647 69.9271 96.4429 70.5549C96.4188 70.58 96.4036 70.6123 96.3997 70.6469C96.3958 70.6814 96.4033 70.7163 96.4212 70.7461C96.4391 70.776 96.4663 70.7991 96.4986 70.8119C96.5309 70.8247 96.5666 70.8266 96.6001 70.8171Z" fill="#191919"/>
<path d="M109.006 69.7593C108.614 69.6319 108.196 69.6049 107.791 69.6807C105.634 69.8655 103.496 70.231 101.4 70.7733C100.549 70.9444 99.7271 71.2389 98.961 71.6475C98.927 71.6694 98.9009 71.7016 98.8865 71.7394C98.8721 71.7772 98.8701 71.8185 98.8808 71.8575C98.8915 71.8965 98.9144 71.9311 98.946 71.9562C98.9777 71.9813 99.0166 71.9957 99.057 71.9973C100.106 71.9415 101.087 71.4951 104.006 70.9659C107.792 70.2789 108.442 70.5561 109.007 70.2135C109.154 70.1241 109.19 69.8379 109.006 69.7593Z" fill="#191919"/>
<path d="M107.82 72.8896C107.329 72.6225 106.762 72.5299 106.211 72.6267C104.696 72.6603 102.113 72.8428 100.703 73.4314C100.661 73.4442 100.625 73.4714 100.601 73.5083C100.577 73.5453 100.566 73.5895 100.571 73.6333C100.577 73.6771 100.597 73.7177 100.629 73.7479C100.661 73.7781 100.703 73.796 100.747 73.7986C102.384 73.8376 102.946 73.5064 106.081 73.4314C106.614 73.4188 107.322 73.5363 107.777 73.2039C107.804 73.189 107.827 73.1679 107.844 73.1425C107.861 73.1171 107.873 73.088 107.877 73.0575C107.881 73.027 107.878 72.996 107.868 72.9668C107.858 72.9377 107.842 72.9112 107.82 72.8896Z" fill="#191919"/>
<path d="M106.278 75.6783C104.367 75.0111 101.321 75.6033 99.1787 76.0107C96.9851 76.4277 95.0783 76.8213 93.6179 78.5811C93.2845 78.9801 92.9999 79.4174 92.7701 79.8837C92.6034 80.186 92.477 80.5087 92.3939 80.8437C90.8252 80.1509 89.2166 79.5524 87.5765 79.0515C88.5461 78.1599 89.1149 75.3279 90.1907 73.5957C91.8269 70.9593 94.6379 69.3837 97.4213 67.9911C97.7252 67.8896 97.9907 67.6973 98.1821 67.4403C98.2044 67.3998 98.2161 67.3542 98.2158 67.3079C98.2156 67.2616 98.2035 67.2161 98.1807 67.1758C98.1579 67.1355 98.1251 67.1017 98.0856 67.0777C98.046 67.0536 98.001 67.04 97.9547 67.0383C97.6872 67.0387 97.4257 67.1177 97.2029 67.2657C96.4397 67.6539 96.1673 67.7457 94.8509 68.4897C89.3771 71.5845 88.9553 74.4555 87.8735 77.2239C87.5854 77.7895 87.3428 78.3772 87.1481 78.9813C86.9998 78.9654 86.8504 78.9626 86.7017 78.9729C86.6591 78.8951 86.5878 78.8369 86.503 78.8108C86.4182 78.7847 86.3265 78.7927 86.2475 78.8331C85.5113 79.2789 82.8479 84.0231 82.4267 84.7785C81.9971 85.5473 81.5861 86.3255 81.1937 87.1131C81.3644 84.8261 81.3844 82.5304 81.2537 80.2407C81.1463 77.9673 80.9081 75.6303 79.8137 73.5957C77.7281 69.7281 73.2869 68.8647 69.5573 70.5357C67.6764 71.4452 66.0217 72.7623 64.7135 74.3913C64.5323 74.6244 64.377 74.8765 64.2503 75.1431C64.2335 75.1735 64.2282 75.2089 64.2352 75.2429C64.2423 75.2769 64.2613 75.3072 64.2888 75.3284C64.3163 75.3495 64.3504 75.3602 64.3851 75.3583C64.4197 75.3565 64.4526 75.3423 64.4777 75.3183C64.6511 75.1593 64.8623 75.0183 65.0285 74.8461C65.5324 74.2812 66.0696 73.7469 66.6371 73.2459C67.394 72.5712 68.2207 71.9791 69.1031 71.4795C72.5405 69.5895 76.9067 70.0995 78.9569 73.5693C80.0567 75.4329 80.3447 77.6349 80.4695 79.7685C80.7203 84.0729 80.4233 85.7607 80.5565 87.7335C80.5625 87.7954 80.5877 87.8539 80.6284 87.9009C80.6692 87.9478 80.7235 87.981 80.7839 87.9957C80.0043 89.6269 79.4008 91.3366 78.9839 93.0957C78.8087 93.7272 78.732 94.3819 78.7565 95.0367C78.7582 95.0779 78.7744 95.1171 78.8023 95.1475C78.8301 95.1778 78.8678 95.1974 78.9087 95.2026C78.9496 95.2078 78.991 95.1985 79.0256 95.1761C79.0602 95.1538 79.0858 95.1199 79.0979 95.0805C79.5047 94.1085 79.6823 92.1741 81.3179 88.6005C82.8497 85.4094 84.6239 82.3404 86.6249 79.4205C87.3539 79.8297 87.4475 79.6353 89.9999 80.6805C92.4269 81.6741 92.8325 81.8661 93.0689 81.9135C92.4769 87.4646 91.5926 92.9807 90.4199 98.4387C89.5985 102.174 88.7753 106.245 85.7855 108.782C85.3626 109.194 84.8574 109.513 84.303 109.716C83.7485 109.919 83.1574 110.003 82.5683 109.962C80.0417 109.627 78.0449 106.836 77.2349 104.314C77.2165 104.243 77.1761 104.179 77.1196 104.132C77.0631 104.085 76.9932 104.057 76.9199 104.052C76.9727 103.589 77.0219 103.125 77.0597 102.662C77.4071 98.4423 77.3447 89.9871 76.5005 87.9375C76.4863 87.8909 76.4561 87.8508 76.4151 87.8244C76.3741 87.798 76.3251 87.7869 76.2768 87.7933C76.2285 87.7996 76.184 87.8229 76.1512 87.859C76.1184 87.8951 76.0995 87.9416 76.0979 87.9903C75.9743 89.0469 76.5737 91.8237 76.5353 97.3719C76.4893 101.82 75.9913 106.253 75.0491 110.601C74.9489 111.045 74.9291 111.484 74.8739 111.938C74.8331 112.271 75.3191 112.287 75.4139 112.017C75.5669 111.644 75.6953 111.261 75.7985 110.871C76.2034 109.039 76.5272 107.189 76.7687 105.328C77.6087 107.444 79.0985 109.499 81.2087 110.408C81.7644 110.66 82.3668 110.791 82.9768 110.794C83.5868 110.797 84.1906 110.672 84.7487 110.426C88.2677 108.86 89.8487 104.366 90.7289 100.633C91.4178 97.7016 92.0069 94.7477 92.4953 91.7763C92.8793 89.4435 93.6827 84.1683 93.7019 81.7209C93.7011 81.6555 93.6782 81.5922 93.6369 81.5415C93.5956 81.4907 93.5384 81.4554 93.4745 81.4413C93.3713 81.3159 93.2349 81.2219 93.0809 81.1701C93.2973 80.4998 93.6256 79.871 94.0517 79.3101C95.4005 77.6097 97.0277 77.2791 99.1049 76.8789C103.673 75.9999 103.112 76.3059 106.248 76.1097C106.296 76.0995 106.339 76.074 106.371 76.0372C106.403 76.0003 106.422 75.954 106.426 75.9053C106.429 75.8566 106.417 75.8081 106.39 75.7672C106.364 75.7262 106.324 75.6951 106.278 75.6783Z" fill="#191919"/>
<path d="M45.3114 72.8541C43.534 73.552 42.0852 74.8945 41.2542 76.6137C39.1056 80.5689 37.6788 87.9123 37.827 89.7465C36.0425 86.9819 34.0084 84.3866 31.7502 81.9933C31.2921 81.4533 30.7694 80.9717 30.1938 80.5593C30.1838 80.4895 30.1474 80.4261 30.0922 80.3823C30.037 80.3384 29.967 80.3174 29.8968 80.3235C29.6793 80.3489 29.4669 80.4078 29.2674 80.4981C28.7548 79.321 28.1094 78.2064 27.3438 77.1759C23.3964 71.3085 22.0914 71.7105 15.549 70.1115C15.1609 69.9884 14.7561 69.9265 14.349 69.9279C14.2833 69.9285 14.2196 69.9507 14.1677 69.991C14.1159 70.0313 14.0787 70.0875 14.0618 70.151C14.045 70.2145 14.0495 70.2818 14.0746 70.3425C14.0997 70.4032 14.144 70.454 14.2008 70.4871C14.829 70.7833 15.498 70.9838 16.1856 71.0817C19.3242 71.8665 20.5848 72.0165 21.9036 72.6555C25.0332 74.1861 26.7036 77.8527 28.872 80.6997C27.2238 81.6693 25.7321 82.8831 24.4476 84.2997C23.9754 83.1459 23.451 82.0089 22.944 80.8635C22.4892 79.8495 22.0608 78.7635 20.8368 78.5469C20.2936 78.4727 19.7423 78.4814 19.2018 78.5727C17.5866 78.7911 10.0158 79.9617 8.84999 80.5755C8.80853 80.6021 8.77658 80.6412 8.75874 80.6871C8.74089 80.733 8.73807 80.7834 8.75067 80.831C8.76328 80.8786 8.79066 80.921 8.82888 80.9521C8.86711 80.9831 8.9142 81.0013 8.96339 81.0039C9.58905 80.9929 10.2112 80.9077 10.8168 80.7501C12.2034 80.4927 18.5916 79.3179 19.9968 79.2549C20.4781 79.1927 20.9651 79.3144 21.3606 79.5957C21.7092 79.9705 21.9749 80.4146 22.1406 80.8989C22.2306 81.0969 23.8386 84.7125 24.0006 84.8769C23.9748 84.9207 23.9484 84.9555 23.922 84.9969C23.9136 85.0059 23.9136 85.0143 23.9046 85.0233C23.8673 85.0211 23.83 85.0274 23.7954 85.0415C23.7608 85.0557 23.7298 85.0774 23.7046 85.105C23.6795 85.1327 23.6609 85.1656 23.6501 85.2014C23.6393 85.2372 23.6367 85.2749 23.6424 85.3119C23.8434 85.9935 24.0528 86.6583 24.2106 87.3519C24.9432 90.6873 25.7706 96.4941 28.5306 101.953C30.7926 106.461 35.1726 111.988 40.0716 110.697C42.6948 109.997 44.4606 107.785 45.7716 105.512C46.2007 107.275 46.673 109.027 47.1882 110.766C47.3318 111.493 47.6137 112.186 48.0186 112.806C48.1758 112.99 48.4386 112.824 48.456 112.623C48.4364 111.968 48.2971 111.321 48.045 110.716C45.1914 101.247 44.7792 95.2491 43.9968 92.7165C43.9859 92.6796 43.9621 92.6478 43.9297 92.6269C43.8974 92.606 43.8586 92.5975 43.8204 92.6028C43.7823 92.6081 43.7473 92.6269 43.7219 92.6558C43.6964 92.6847 43.6822 92.7218 43.6818 92.7603C43.545 95.4123 44.9034 101.869 45.5094 104.46C44.2764 106.594 42.8514 108.876 40.4382 109.785C35.8068 111.553 31.5582 106.2 29.2992 101.82C26.424 96.2307 25.5858 89.9925 24.8754 87.1137C24.7406 86.4655 24.4972 85.8447 24.1554 85.2777C24.1638 85.2687 24.1728 85.2687 24.1812 85.2603C25.1712 84.6393 27.1638 82.3887 29.3136 81.2817C29.5086 81.1815 29.6982 81.0981 29.8818 80.9931C30.2211 81.4474 30.5922 81.8771 30.9924 82.2789C37.8414 89.7747 39.9882 95.4279 41.4846 97.8945C41.6328 98.1393 42.0528 97.9815 41.9568 97.6929C41.3046 95.5395 39.1968 91.8195 38.0922 90.1563C38.1408 90.1493 38.187 90.1305 38.2266 90.1015C38.2663 90.0725 38.2982 90.0343 38.3196 89.9901C38.6844 89.0199 38.9442 83.4537 41.4144 77.9421C43.0434 74.2977 45.6102 72.4821 49.677 73.2381C51.6936 73.6065 52.5924 74.5815 53.769 76.0707C53.8998 76.2285 54.171 76.0533 54.1098 75.8697C53.0502 72.9369 48.8856 71.6133 45.3114 72.8541Z" fill="#191919"/>
<path d="M17.2199 73.1691C16.3725 72.8208 15.4693 72.6283 14.5535 72.6009C12.0136 72.3186 9.4548 72.2453 6.9029 72.3819C6.68509 72.4082 6.47595 72.483 6.2909 72.6009C6.0899 72.6795 6.1673 72.9537 6.3431 73.0209C6.5585 73.1138 6.79072 73.1614 7.0253 73.1607C9.51635 73.0575 12.0116 73.1307 14.4923 73.3797C15.3774 73.5392 16.2792 73.5862 17.1761 73.5195C17.2123 73.5091 17.2446 73.4884 17.269 73.4598C17.2935 73.4312 17.309 73.3961 17.3137 73.3588C17.3183 73.3214 17.3119 73.2836 17.2953 73.2498C17.2786 73.2161 17.2524 73.188 17.2199 73.1691Z" fill="#191919"/>
<path d="M13.5121 75.0933C11.5147 74.6835 7.96567 75.1113 5.95207 75.3993C5.57629 75.4093 5.20922 75.5146 4.88527 75.7053C4.8384 75.7342 4.80091 75.7761 4.77736 75.8259C4.75381 75.8757 4.74519 75.9313 4.75256 75.9859C4.75992 76.0405 4.78295 76.0918 4.81885 76.1335C4.85476 76.1753 4.902 76.2058 4.95487 76.2213C5.55127 76.3851 5.80747 76.0917 9.23047 75.8103C10.6555 75.6903 12.1069 75.7137 13.5151 75.4779C13.5565 75.4654 13.5928 75.4398 13.6185 75.4049C13.6442 75.37 13.6579 75.3278 13.6576 75.2845C13.6572 75.2411 13.6429 75.1991 13.6167 75.1646C13.5904 75.1302 13.5537 75.1051 13.5121 75.0933Z" fill="#191919"/>
<path d="M13.905 77.2084C13.2903 77.0408 12.6428 77.0348 12.0252 77.191C10.3613 77.3574 8.71079 77.6381 7.08539 78.031C6.77258 78.0786 6.479 78.2117 6.23699 78.4156C6.21883 78.4355 6.20598 78.4598 6.19961 78.486C6.19325 78.5123 6.19357 78.5397 6.20056 78.5658C6.20755 78.5919 6.22097 78.6158 6.2396 78.6354C6.25823 78.6549 6.28147 78.6695 6.30719 78.6778C6.5816 78.7541 6.8712 78.7572 7.14719 78.6868C7.40939 78.6514 10.1124 78.1828 12.0258 77.9788C13.1334 77.8588 13.5486 77.902 13.9056 77.6638C13.9448 77.6401 13.9772 77.6066 13.9997 77.5667C14.0222 77.5268 14.034 77.4817 14.034 77.4359C14.0339 77.3901 14.022 77.345 13.9994 77.3052C13.9768 77.2653 13.9443 77.2319 13.905 77.2084Z" fill="#191919"/>
<path d="M65.3399 64.6179C65.184 64.2537 64.9138 63.95 64.5701 63.7527C64.6079 63.5199 65.2019 59.7003 65.1911 59.4507C65.2251 58.826 65.039 58.2092 64.6652 57.7075C64.2914 57.2059 63.7535 56.8512 63.1451 56.7051C61.8089 56.3007 61.2899 56.3493 60.1901 54.5547C59.5651 53.3723 58.7362 52.3096 57.7415 51.4155C56.644 50.4889 55.2431 50.0001 53.8073 50.0427C49.4447 50.2827 47.5853 56.2167 49.9337 59.4243C51.3815 61.4043 53.9537 61.9953 56.3867 61.8291C57.3024 61.7849 58.2108 61.6442 59.0969 61.4091C59.2569 63.1567 60.0132 64.7961 61.2389 66.0519C61.289 66.0991 61.3502 66.1328 61.4168 66.1498C61.4834 66.1668 61.5533 66.1666 61.6198 66.1491C61.6863 66.1316 61.7473 66.0975 61.7969 66.05C61.8466 66.0024 61.8834 65.943 61.9037 65.8773C62.1887 64.6647 62.7839 64.0857 64.0721 64.1283C65.3825 64.8429 64.7969 67.4121 63.2063 67.7745C62.3477 67.9701 62.1071 67.5099 61.6499 67.4859C61.6027 67.4854 61.556 67.4958 61.5135 67.5162C61.471 67.5367 61.4337 67.5667 61.4047 67.6039C61.3757 67.6412 61.3556 67.6846 61.3461 67.7308C61.3366 67.7771 61.3379 67.8249 61.3499 67.8705C61.4699 68.3025 62.0633 68.5035 62.5037 68.5527C62.1566 69.6384 61.9746 70.77 61.9637 71.9097C61.943 73.2062 62.1229 74.4981 62.4971 75.7395C62.5243 75.8232 62.5828 75.8931 62.6603 75.9346C62.7379 75.9761 62.8284 75.986 62.9131 75.9623C62.9978 75.9386 63.07 75.8831 63.1147 75.8074C63.1594 75.7316 63.1731 75.6415 63.1529 75.5559C62.5199 73.2808 62.4538 70.8852 62.9603 68.5785C64.9883 68.4723 66.0035 66.0189 65.3399 64.6179ZM51.6065 59.2233C50.8625 59.4687 50.0561 57.8637 49.8923 56.9853C49.7123 56.0253 49.7375 54.2919 50.4173 53.6187C50.438 53.599 50.4636 53.585 50.4914 53.5782C50.5192 53.5714 50.5483 53.5721 50.5758 53.5801C50.6033 53.5881 50.6281 53.6033 50.6479 53.6239C50.6677 53.6446 50.6817 53.6701 50.6885 53.6979C50.8085 54.5235 50.3717 55.2813 50.6621 56.7315C51.0029 58.4349 51.7787 58.2783 51.8333 58.9263C51.8317 58.9934 51.8089 59.0583 51.7682 59.1117C51.7274 59.165 51.6709 59.2041 51.6065 59.2233Z" fill="#191919"/>
</svg>
