<svg width="24" height="24" viewBox="0 0 24 24" fill="none" xmlns="http://www.w3.org/2000/svg">
<path d="M8.64293 0.607595C4.21228 0.607595 0.607605 4.21214 0.607605 8.64288V15.3571C0.607605 19.7878 4.21228 23.3924 8.64293 23.3924H15.3572C19.7878 23.3924 23.3924 19.7878 23.3924 15.3571V12.3771L19.8171 14.4998V15.3571C19.8171 17.8163 17.8163 19.817 15.3572 19.817H8.64293C6.1837 19.817 4.18299 17.8163 4.18299 15.3571V8.64288C4.18299 6.18363 6.1837 4.18292 8.64293 4.18292H15.3572C16.9743 4.18292 18.4809 5.08344 19.2615 6.49385L11.8973 10.9575L9.84703 7.57499L9.05795 8.05326C9.05847 8.05416 9.05909 8.0549 9.05961 8.05581C9.29474 8.44998 9.15636 8.96566 8.75068 9.20765C8.34771 9.44792 7.83292 9.32744 7.5956 8.93969L6.78951 9.42826L10.6929 15.8683L23.3807 8.17794L23.3687 8.02095C23.29 6.99395 23.0177 6.01008 22.5634 5.09112L22.5687 5.08796L22.3278 4.63522L22.3239 4.63755C20.8895 2.14487 18.2448 0.607595 15.3572 0.607595H8.64293Z" fill="#375DFB"/>
</svg>
